<svg width="22" height="22" viewBox="0 0 22 22" fill="none" xmlns="http://www.w3.org/2000/svg">
<path d="M18.5001 18H3.50394C3.22808 18 3.00444 18.2236 3.00392 18.4995L3.00195 19.9575C3.00149 20.5029 3.21336 21.0156 3.59863 21.4013C3.98436 21.7876 4.49656 22 5.042 22H16.96C18.085 22 19 21.0849 19 19.9599V18.5C19 18.2236 18.7764 18 18.5001 18Z" fill="#D73D36"/>
<path d="M16.5 2.00002C16.1939 2.00002 15.8794 2.03077 15.5464 2.09278C14.4024 0.758766 12.7627 0 11 0C7.69144 0 5.00002 2.69142 5.00002 6C5.00002 6.27586 4.77591 6.50002 4.5 6.50002C4.22414 6.50002 3.99999 6.27591 3.99999 6C3.99999 4.91747 4.24903 3.8701 4.74024 2.88722C4.82766 2.71242 4.80516 2.50294 4.6831 2.3506C4.56103 2.19924 4.3613 2.13183 4.17188 2.17824C1.71535 2.79103 0 4.97949 0 7.5C0 9.57812 1.17188 11.4673 3.01172 12.4014L3.00633 16.4995C3.00633 16.6318 3.0586 16.7593 3.15235 16.8535C3.24656 16.9472 3.37355 17 3.50635 17H18.5C18.7764 17 19 16.7763 19 16.5V12.394C20.833 11.4575 22 9.57122 22 7.49996C22 4.46728 19.5327 2.00002 16.5 2.00002ZM7.31738 13.8867C7.2241 13.9629 7.11183 14 7.0005 14C6.85599 14 6.71241 13.9375 6.61332 13.8174C6.44827 13.6157 5.00002 11.813 5.00002 10.5C5.00002 10.2236 5.22366 9.99999 5.50004 9.99999C5.77641 9.99999 6.00005 10.2236 6.00005 10.5C6.00005 11.2237 6.85065 12.5293 7.38676 13.1826C7.56151 13.3965 7.53076 13.7114 7.31738 13.8867ZM11.5 13.5C11.5 13.7764 11.2764 14 11 14C10.7236 14 10.5 13.7764 10.5 13.5V10.5C10.5 10.2236 10.7236 9.99999 11 9.99999C11.2764 9.99999 11.5 10.2236 11.5 10.5V13.5H11.5ZM15.3867 13.8174C15.2876 13.9375 15.1445 14 15 14C14.8882 14 14.7759 13.9629 14.6831 13.8867C14.4698 13.7114 14.4385 13.3965 14.6133 13.1831C15.1494 12.5283 16 11.2212 16 10.5C16 10.2236 16.2236 9.99999 16.5 9.99999C16.7764 9.99999 17 10.2236 17 10.5C17 11.813 15.5518 13.6157 15.3867 13.8174Z" fill="#D73D36"/>
</svg>
